<!-- icon666.com - MILLIONS vector ICONS FREE --><svg id="Layer_1" enable-background="new 0 0 74 74" viewBox="0 0 74 74" xmlns="http://www.w3.org/2000/svg"><g><g><path d="m56.05 34.1 3.29.38c-.23 3.16-1.02 6.16-2.24 8.95l-13.44 13.42c-2.77 1.23-5.77 2.03-8.95 2.25l-.38-3.28h-3.19l-.39 3.28c-3.42-.24-6.66-1.15-9.6-2.56l1.3-3.04-2.75-1.59-1.98 2.7c-2.8-1.93-5.17-4.29-7.05-7.09l2.66-1.98-1.55-2.75-3.09 1.35c-1.4-3-2.32-6.23-2.56-9.66l3.29-.38v-3.19l-3.29-.34c.24-3.48 1.16-6.71 2.56-9.66l3.09 1.31 1.55-2.75-2.66-1.98c1.88-2.75 4.25-5.17 7.05-7.05l1.98 2.7 2.75-1.59-1.3-3.04c2.94-1.45 6.18-2.37 9.6-2.61l.39 3.33h3.19l.38-3.33c3.43.24 6.67 1.16 9.61 2.61l-1.3 3.04 2.75 1.59 1.98-2.7c2.75 1.88 5.16 4.3 7.05 7.05l-2.66 1.98 1.55 2.75 3.09-1.31c1.4 2.95 2.31 6.18 2.56 9.66l-3.29.34z" fill="#3d3d3d"/></g><g><g opacity=".3"><path d="m9.42 30.91-3.29-.34c.24-3.48 1.16-6.71 2.56-9.66l1.3.55c-.96 2.44-1.58 5.05-1.77 7.82l3.29.34v3.19l-2.09.24z" fill="#fff"/></g><g opacity=".3"><path d="m13.33 19.47-2.66-1.98c1.88-2.75 4.25-5.17 7.05-7.05l.13.17c-1.96 1.61-3.67 3.51-5.09 5.59l2.66 1.98-1.55 2.75-1.1-.47z" fill="#fff"/></g><g opacity=".3"><path d="m19.06 52.78-1.34 1.83c-2.8-1.93-5.17-4.29-7.05-7.09l2.66-1.98-1.55-2.75-3.09 1.35c-1.4-3-2.32-6.23-2.56-9.66l2.19-.25c.33 3.04 1.2 5.92 2.46 8.62l3.09-1.35 1.55 2.75-2.66 1.98c1.71 2.55 3.82 4.73 6.3 6.55z" fill="#fff"/></g><g opacity=".3"><path d="m23.24 55.25c2.39 1.14 4.97 1.96 7.69 2.35l-.18 1.5c-3.42-.24-6.66-1.15-9.6-2.56l1.3-3.04-1.95-1.13 1.29-1.75 2.75 1.59z" fill="#fff"/></g><g opacity=".3"><path d="m36.8 57.81c2.67-.18 5.22-.78 7.6-1.7l-.74.74c-2.77 1.23-5.77 2.03-8.95 2.25l-.38-3.28h-1.25l.15-1.29h3.19z" fill="#fff"/></g><g opacity=".3"><path d="m8.22 33.19 1.2-.14v1.05l-1.1.13c-.04-.35-.08-.69-.1-1.04z" fill="#fff"/></g><g opacity=".3"><path d="m10.78 19.62 1.99.84-.99 1.76-1.79-.76c.24-.63.5-1.24.79-1.84z" fill="#fff"/></g><g opacity=".3"><path d="m19.7 51.91.8.46-.69.95c-.25-.18-.51-.35-.75-.54z" fill="#fff"/></g><g opacity=".3"><path d="m31.14 55.82h1.94l-.24 1.99c-.64-.05-1.28-.11-1.91-.21z" fill="#fff"/></g></g><g><path d="m30.75 59.85c-.02 0-.04 0-.05 0-3.41-.24-6.73-1.12-9.87-2.63-.36-.17-.52-.6-.37-.97l1.04-2.43-1.59-.92-1.58 2.16c-.24.33-.69.4-1.03.17-2.91-2-5.34-4.46-7.25-7.29-.22-.33-.15-.78.17-1.02l2.13-1.59-.89-1.58-2.47 1.08c-.37.16-.81 0-.98-.37-1.51-3.23-2.39-6.57-2.63-9.92-.03-.4.26-.75.66-.8l2.63-.3v-1.84l-2.62-.27c-.4-.04-.7-.39-.67-.8.24-3.41 1.12-6.75 2.63-9.93.17-.36.6-.53.97-.37l2.47 1.05.9-1.59-2.13-1.59c-.32-.24-.4-.69-.17-1.02 2-2.92 4.44-5.36 7.25-7.25.33-.23.79-.15 1.02.18l1.58 2.16 1.59-.92-1.03-2.45c-.16-.37 0-.79.36-.97 3.13-1.54 6.45-2.44 9.88-2.69.43-.03.75.26.8.66l.31 2.67h1.85l.3-2.67c.04-.4.39-.7.8-.66 3.43.24 6.76 1.14 9.89 2.69.36.18.51.6.36.97l-1.04 2.43 1.59.92 1.59-2.15c.24-.33.69-.4 1.03-.18 2.8 1.91 5.3 4.42 7.25 7.24.23.33.15.79-.17 1.03l-2.13 1.59.9 1.59 2.47-1.05c.37-.16.8.01.97.37 1.5 3.16 2.38 6.5 2.63 9.93.03.4-.27.76-.67.8l-2.62.27v1.84l2.63.3c.4.05.69.4.66.8-.23 3.13-1 6.23-2.3 9.2-.04.09-.09.16-.16.23l-13.45 13.42c-.07.06-.14.12-.23.15-2.97 1.32-6.06 2.1-9.2 2.31-.39.04-.75-.26-.8-.66l-.3-2.62h-1.86l-.31 2.62c-.04.39-.36.67-.74.67zm.39-4.78h3.19c.38 0 .7.29.75.66l.3 2.56c2.68-.26 5.32-.96 7.86-2.07l13.23-13.22c1.1-2.55 1.79-5.19 2.06-7.86l-2.57-.3c-.38-.04-.66-.36-.66-.75v-3.19c0-.38.29-.71.67-.75l2.56-.26c-.28-2.76-.99-5.45-2.13-8.01l-2.42 1.03c-.35.15-.76.01-.95-.32l-1.55-2.75c-.19-.33-.1-.74.21-.97l2.07-1.54c-1.63-2.24-3.63-4.24-5.84-5.85l-1.54 2.11c-.23.31-.65.4-.98.21l-2.75-1.59c-.33-.19-.46-.6-.31-.94l1.02-2.38c-2.54-1.17-5.22-1.9-7.97-2.17l-.3 2.61c-.04.38-.36.67-.75.67h-3.19c-.38 0-.7-.28-.75-.66l-.31-2.61c-2.75.27-5.42 1-7.97 2.17l1.02 2.38c.15.35.01.75-.31.94l-2.75 1.59c-.33.19-.75.1-.98-.21l-1.55-2.11c-2.22 1.59-4.18 3.55-5.84 5.85l2.08 1.54c.3.23.39.64.21.97l-1.55 2.75c-.19.33-.59.47-.95.32l-2.42-1.03c-1.15 2.59-1.86 5.28-2.13 8.02l2.56.26c.38.04.67.36.67.75v3.19c0 .38-.29.7-.66.75l-2.57.3c.27 2.7.98 5.39 2.13 8.01l2.41-1.05c.35-.15.76-.02.95.32l1.55 2.75c.19.33.1.74-.21.97l-2.08 1.55c1.6 2.24 3.56 4.21 5.85 5.88l1.54-2.1c.22-.31.65-.4.98-.21l2.75 1.59c.33.19.46.6.31.94l-1.01 2.37c2.56 1.14 5.23 1.86 7.96 2.13l.3-2.56c.06-.4.38-.68.76-.68z"/></g><g><path d="m67.87 54.86c0 7.32-5.94 13.24-13.25 13.24s-13.24-5.93-13.24-13.24c0-7.32 5.94-13.24 13.24-13.24 7.31 0 13.25 5.92 13.25 13.24z" fill="#ff9700"/></g><g opacity=".3"><path d="m64.16 64.05c-2.41 2.5-5.8 4.05-9.54 4.05-7.31 0-13.25-5.92-13.25-13.24 0-4.48 2.22-8.43 5.62-10.82-2.32 2.38-3.74 5.62-3.74 9.21 0 7.32 5.94 13.24 13.24 13.24 2.85 0 5.5-.9 7.67-2.44z" fill="#fff"/></g><g><path d="m61.76 56.03 1.11 1.51c-.85 1.49-.95 1.64-1.81 3.13l-1.87-.21c-.74.43-1.27.73-2.01 1.17l-.76 1.72h-3.62l-.76-1.72c-.74-.44-1.27-.74-2.01-1.17l-1.87.21c-.86-1.49-.95-1.64-1.81-3.13l1.11-1.51v-2.33l-1.11-1.51c.85-1.49.95-1.64 1.81-3.13l1.87.21c.74-.43 1.27-.73 2.01-1.17l.76-1.72h3.62l.76 1.72c.74.44 1.27.74 2.01 1.17l1.87-.21c.86 1.49.95 1.64 1.81 3.13l-1.11 1.51z" fill="#333"/></g><g opacity=".3"><path d="m54.26 62.01h2.75l-.58 1.34h-3.62l-.75-1.72c-.74-.43-1.28-.74-2.02-1.17l-1.86.21c-.87-1.49-.96-1.64-1.81-3.13l1.11-1.51v-2.34l-1.11-1.51c.85-1.49.94-1.64 1.81-3.13l.63.07c-.27.47-.51.88-.99 1.72l1.11 1.51v2.34l-1.11 1.51c.85 1.49.94 1.64 1.8 3.13l1.87-.2c.74.42 1.27.73 2.01 1.16z" fill="#fff"/></g><g><path d="m54.62 68.85c-7.72 0-13.99-6.28-13.99-13.99s6.28-13.99 13.99-13.99c7.72 0 14 6.28 14 13.99s-6.28 13.99-14 13.99zm0-26.48c-6.89 0-12.49 5.6-12.49 12.49s5.6 12.49 12.49 12.49 12.5-5.6 12.5-12.49-5.61-12.49-12.5-12.49z"/></g><g><path d="m56.43 64.1h-3.62c-.3 0-.57-.18-.69-.45l-.66-1.5c-.44-.26-.81-.47-1.22-.71l-.37-.21-1.62.18c-.3.03-.58-.11-.73-.37-.86-1.48-.95-1.64-1.8-3.12-.15-.26-.14-.59.04-.83l.96-1.31v-1.84l-.96-1.31c-.18-.24-.19-.56-.05-.82.86-1.49.95-1.64 1.81-3.13.15-.26.44-.4.73-.37l1.62.18.37-.21c.41-.23.78-.45 1.22-.71l.66-1.5c.12-.27.39-.45.69-.45h3.62c.3 0 .57.18.69.45l.66 1.5c.44.26.81.47 1.22.71l.37.21 1.62-.18c.29-.03.58.11.73.37l.12.2c.76 1.3.88 1.51 1.69 2.93.15.26.13.58-.05.82l-.96 1.31v1.84l.96 1.31c.18.24.19.56.05.82-.84 1.46-.94 1.64-1.76 3.05-.15.26-.48.47-.78.45l-1.62-.18-.37.21c-.41.23-.78.45-1.22.71l-.66 1.5c-.12.27-.39.45-.69.45zm-3.13-1.5h2.64l.56-1.27c.06-.14.17-.26.31-.34.54-.31.96-.56 1.44-.84l.58-.33c.14-.08.29-.12.46-.1l1.38.15c.57-.99.77-1.32 1.32-2.28l-.82-1.12c-.09-.13-.15-.28-.15-.44v-2.33c0-.16.05-.31.15-.44l.82-1.12c-.56-.98-.75-1.3-1.32-2.28l-1.39.14c-.16.02-.32-.02-.46-.1l-.58-.33c-.48-.27-.9-.52-1.44-.84-.14-.08-.24-.2-.31-.34l-.56-1.27h-2.63l-.56 1.27c-.06.14-.17.26-.31.34-.54.31-.96.56-1.44.84l-.58.33c-.14.08-.3.11-.46.1l-1.38-.15c-.57.98-.75 1.3-1.32 2.28l.82 1.12c.09.13.15.28.15.44v2.33c0 .16-.05.31-.15.44l-.82 1.12c.57.98.75 1.3 1.32 2.28l1.38-.15c.16-.02.32.02.46.1l.59.34c.48.27.9.52 1.44.84.14.08.24.2.31.34z"/></g><g><path d="m57.55 54.86c0 1.62-1.31 2.93-2.93 2.93s-2.93-1.31-2.93-2.93 1.31-2.93 2.93-2.93 2.93 1.31 2.93 2.93z" fill="#ff9700"/></g><g opacity=".3"><path d="m57.32 56c-.44 1.05-1.49 1.79-2.7 1.79-1.62 0-2.93-1.31-2.93-2.93 0-.89.39-1.68 1.02-2.22-.14.34-.22.72-.22 1.12 0 1.62 1.32 2.93 2.93 2.93.72 0 1.39-.26 1.9-.69z" fill="#fff"/></g><g><path d="m54.62 58.54c-2.03 0-3.68-1.65-3.68-3.68s1.65-3.68 3.68-3.68 3.68 1.65 3.68 3.68-1.65 3.68-3.68 3.68zm0-5.86c-1.2 0-2.18.98-2.18 2.18s.98 2.18 2.18 2.18 2.18-.98 2.18-2.18-.98-2.18-2.18-2.18z"/></g><g><g><ellipse cx="32.73" cy="32.51" fill="#5e6263" rx="15.09" ry="15.09" transform="matrix(.707 -.707 .707 .707 -13.401 32.665)"/></g><g opacity=".3"><path d="m44.41 42.05c-2.75 3.39-6.96 5.55-11.68 5.55-8.33 0-15.09-6.76-15.09-15.09 0-4.71 2.16-8.92 5.55-11.68-2.14 2.6-3.41 5.93-3.41 9.54 0 8.33 6.76 15.09 15.09 15.09 3.62 0 6.94-1.27 9.54-3.41z" fill="#fff"/></g><g><path d="m47.82 32.51c0 1.49-.22 2.93-.63 4.29-.01 0-.01 0-.02 0-.29.05-.63.1-.97.1-2.84 0-5.11-2.71-5.11-4.4 0-1.68 2.27-4.39 5.11-4.39.34 0 .68.05.97.1h.02c.41 1.36.63 2.81.63 4.3z" fill="#5e6263"/></g><g opacity=".3"><path d="m47.48 35.67c-.08.38-.18.76-.29 1.13-.01 0-.01 0-.02 0-.29.05-.63.1-.97.1-2.84 0-5.11-2.71-5.11-4.4 0-1.19 1.15-2.91 2.83-3.79-.79.83-1.26 1.81-1.26 2.58 0 1.63 2.12 4.22 4.82 4.38z" fill="#fff"/></g><g><path d="m37.12 19.04c0 2.85-2.71 5.12-4.4 5.12-1.68 0-4.39-2.27-4.39-5.12 0-.34.05-.68.1-.97 0-.01 0-.01 0-.02 1.36-.41 2.81-.63 4.3-.63s2.93.22 4.29.62v.03c.05.29.1.63.1.97z" fill="#5e6263"/></g><g opacity=".3"><path d="m36.63 21.12c-.85 1.8-2.66 3.04-3.91 3.04-1.68 0-4.39-2.27-4.39-5.12 0-.34.05-.68.1-.97 0-.01 0-.01 0-.02.39-.12.8-.22 1.21-.3.25 2.63 2.77 4.67 4.36 4.67.79 0 1.79-.49 2.63-1.3z" fill="#fff"/></g><g><path d="m24.38 32.52c0 1.69-2.27 4.39-5.12 4.39-.34 0-.68-.04-.97-.09-.01 0-.01 0-.02 0-.41-1.36-.63-2.81-.63-4.31 0-1.49.22-2.93.63-4.29h.02c.29-.04.63-.09.97-.09 2.85 0 5.12 2.7 5.12 4.39z" fill="#5e6263"/></g><g><g><g opacity=".3"><path d="m19.26 36.91c-.34 0-.68-.04-.97-.09-.01 0-.01 0-.02 0-.41-1.36-.63-2.81-.63-4.31 0-1.49.22-2.93.63-4.29h.02c.29-.04.63-.09.97-.09.33 0 .35-.03.66.04-.33 1.22-.19 2.57-.19 3.89 0 1.5 1.27 4.62 1.28 4.62.27.05-1.04.23-1.75.23z" fill="#fff"/></g></g></g><g><path d="m37.13 45.98c0 .34-.04.68-.09.97v.02c-1.36.41-2.81.63-4.31.63-1.49 0-2.93-.22-4.29-.62v-.03c-.04-.29-.09-.63-.09-.97 0-2.84 2.7-5.11 4.39-5.11s4.39 2.27 4.39 5.11z" fill="#5e6263"/></g><g opacity=".3"><path d="m37.04 46.91v.04.02c-1.36.41-2.81.63-4.31.63-1.49 0-2.93-.22-4.29-.62v-.03c-.04-.29-.09-.63-.09-.97 0-2.84 2.7-5.11 4.39-5.11.11 0 .22.01.33.03-1.4.83-2.77 2.56-2.77 4.58 0 .34.05.68.09.97v.03c1.36.4 2.8.62 4.29.62.8 0 1.59-.06 2.36-.19z" fill="#fff"/></g><g><ellipse cx="32.73" cy="32.51" fill="#fff" rx="4.83" ry="4.83" transform="matrix(.707 -.707 .707 .707 -13.401 32.665)"/></g><g opacity=".3"><path d="m36.42 35.63c.14-.44.21-.91.21-1.4 0-2.67-2.16-4.83-4.83-4.83-1.48 0-2.81.67-3.69 1.72.59-1.99 2.44-3.44 4.62-3.44 2.67 0 4.83 2.16 4.83 4.83 0 1.19-.43 2.27-1.14 3.12z" fill="#d1d6d9"/></g><g><path d="m46.2 37.65c-3.34 0-5.86-3.12-5.86-5.15 0-2.02 2.52-5.14 5.86-5.14.4 0 .79.06 1.08.11.29.04.54.24.63.52.44 1.46.66 2.98.66 4.52 0 1.53-.22 3.05-.66 4.51-.09.3-.36.51-.66.53-.31.05-.67.1-1.05.1zm0-8.79c-2.48 0-4.36 2.43-4.36 3.64 0 1.22 1.88 3.65 4.36 3.65.13 0 .27-.01.4-.02.31-1.17.47-2.39.47-3.62s-.16-2.45-.47-3.63c-.13-.01-.27-.02-.4-.02z"/></g><g><path d="m32.72 24.91c-2.02 0-5.14-2.52-5.14-5.87 0-.4.06-.79.11-1.08.04-.29.24-.54.52-.62 2.89-.87 6.06-.88 9.02-.01.32.09.54.39.54.72.04.22.1.6.1 1 0 3.34-3.12 5.86-5.15 5.86zm-3.62-6.27c-.01.13-.02.27-.02.4 0 2.48 2.43 4.37 3.64 4.37 1.22 0 3.65-1.89 3.65-4.37 0-.14-.01-.27-.03-.41-2.38-.62-4.9-.61-7.24.01z"/></g><g><path d="m19.26 37.66c-.33 0-.7-.03-1.08-.1-.29-.04-.54-.24-.63-.52-.44-1.46-.66-2.98-.66-4.53 0-1.53.22-3.05.66-4.51.1-.32.39-.53.72-.53.25-.04.62-.09.99-.09 3.35 0 5.87 3.12 5.87 5.14s-2.52 5.14-5.87 5.14zm-.4-1.52c.14.01.28.02.4.02 2.48 0 4.37-2.43 4.37-3.64s-1.89-3.64-4.37-3.64c-.14 0-.27.01-.4.02-.31 1.17-.47 2.38-.47 3.61 0 1.24.16 2.45.47 3.63z"/></g><g><path d="m32.73 48.35c-1.52 0-3.04-.22-4.5-.65-.32-.09-.54-.39-.54-.72-.04-.27-.09-.63-.09-1 0-3.34 3.12-5.86 5.14-5.86s5.14 2.52 5.14 5.86c0 .33-.03.7-.1 1.08-.04.29-.25.54-.53.63-1.45.44-2.97.66-4.52.66zm-3.61-1.96c2.38.62 4.91.61 7.24-.01.01-.14.02-.28.02-.4 0-2.48-2.43-4.36-3.64-4.36s-3.64 1.89-3.64 4.36c0 .14.01.28.02.41z"/></g><g><path d="m32.73 38.09c-3.08 0-5.58-2.5-5.58-5.58s2.5-5.58 5.58-5.58 5.58 2.5 5.58 5.58-2.5 5.58-5.58 5.58zm0-9.66c-2.25 0-4.08 1.83-4.08 4.08s1.83 4.08 4.08 4.08 4.08-1.83 4.08-4.08-1.83-4.08-4.08-4.08z"/></g><g><path d="m32.73 48.35c-8.73 0-15.84-7.1-15.84-15.84s7.11-15.84 15.84-15.84 15.84 7.1 15.84 15.84-7.11 15.84-15.84 15.84zm0-30.18c-7.91 0-14.34 6.43-14.34 14.34s6.43 14.34 14.34 14.34 14.34-6.43 14.34-14.34-6.43-14.34-14.34-14.34z"/></g></g></g></svg>