<svg viewBox="0 0 512 512" xmlns="http://www.w3.org/2000/svg"><g id="Tires"><path d="m216 512h-160a56.06 56.06 0 0 1 -56-56v-400a56.06 56.06 0 0 1 56-56h160a56.06 56.06 0 0 1 56 56v400a56.06 56.06 0 0 1 -56 56zm-160-480a24 24 0 0 0 -24 24v400a24 24 0 0 0 24 24h160a24 24 0 0 0 24-24v-400a24 24 0 0 0 -24-24z"/><path d="m168 512h-64a16 16 0 0 1 -16-16v-480a16 16 0 0 1 16-16h64a16 16 0 0 1 16 16v480a16 16 0 0 1 -16 16zm-48-32h32v-448h-32z"/><path d="m98.84 116.14-88-30a16 16 0 1 1 10.32-30.28l88 30a16 16 0 0 1 -10.32 30.28z"/><path d="m98.84 184.14-88-30a16 16 0 1 1 10.32-30.28l88 30a16 16 0 0 1 -10.32 30.28z"/><path d="m98.84 252.14-88-30a16 16 0 1 1 10.32-30.28l88 30a16 16 0 0 1 -10.32 30.28z"/><path d="m98.84 320.14-88-30a16 16 0 1 1 10.32-30.28l88 30a16 16 0 0 1 -10.32 30.28z"/><path d="m98.84 388.14-88-30a16 16 0 1 1 10.32-30.28l88 30a16 16 0 0 1 -10.32 30.28z"/><path d="m98.84 456.14-88-30a16 16 0 1 1 10.32-30.28l88 30a16 16 0 0 1 -10.32 30.28z"/><path d="m152.86 106.16a16 16 0 0 1 10-20.3l88-30a16 16 0 0 1 10.32 30.28l-88 30a16 16 0 0 1 -20.32-9.98z"/><path d="m152.86 174.16a16 16 0 0 1 10-20.3l88-30a16 16 0 0 1 10.32 30.28l-88 30a16 16 0 0 1 -20.32-9.98z"/><path d="m152.86 242.16a16 16 0 0 1 10-20.3l88-30a16 16 0 0 1 10.32 30.28l-88 30a16 16 0 0 1 -20.32-9.98z"/><path d="m152.86 310.16a16 16 0 0 1 10-20.3l88-30a16 16 0 0 1 10.32 30.28l-88 30a16 16 0 0 1 -20.32-9.98z"/><path d="m152.86 378.16a16 16 0 0 1 10-20.3l88-30a16 16 0 0 1 10.32 30.28l-88 30a16 16 0 0 1 -20.32-9.98z"/><path d="m152.86 446.16a16 16 0 0 1 10-20.3l88-30a16 16 0 0 1 10.32 30.28l-88 30a16 16 0 0 1 -20.32-9.98z"/><g opacity=".2"><path d="m256 242v214a40 40 0 0 1 -40 40h-160a40 40 0 0 1 -39.91-37.31c115.69-19.69 208.91-105.22 239.91-216.69z"/></g><path d="m225.81 510.23a16 16 0 1 1 3.57-31.8 224 224 0 1 0 0-444.86 16 16 0 1 1 -3.5-31.81c152.55-17.93 286.12 100.92 286.12 254.24 0 153.63-133.91 272.17-286.19 254.23z"/><path d="m376 479.85a16 16 0 0 1 -16-15.05l-2.15-35.71a16 16 0 0 1 31.95-1.92l2.2 35.72a16 16 0 0 1 -16 16.96z"/><path d="m463.86 392a16 16 0 0 1 -13.37-7.18l-19.71-29.82a16 16 0 0 1 26.71-17.63l19.71 29.85a16 16 0 0 1 -13.34 24.78z"/><path d="m488.84 270.31-32-16a16 16 0 0 1 14.32-28.62l32 16a16 16 0 1 1 -14.32 28.62z"/><path d="m428.12 154.14a16 16 0 0 1 -.95-32l35.72-2.14a16 16 0 1 1 1.91 32c-38.53 2.28-35.97 2.14-36.68 2.14z"/><path d="m332.79 76.68a16 16 0 0 1 4.54-22.17l29.85-19.71a16 16 0 0 1 17.64 26.71l-29.82 19.71a16 16 0 0 1 -22.21-4.54z"/><path d="m256 327a16 16 0 0 1 0-32 39 39 0 0 0 0-78 16 16 0 0 1 0-32 71 71 0 0 1 0 142z"/><path d="m256 422a16 16 0 0 1 0-32c73.89 0 134-60.11 134-134s-60.11-134-134-134a16 16 0 0 1 0-32c91.53 0 166 74.47 166 166s-74.47 166-166 166z"/><path d="m344.18 393.35a16 16 0 0 1 -12.95-6.6l-55.84-76.86a16 16 0 0 1 25.88-18.8l55.84 76.91a16 16 0 0 1 -12.93 25.35z"/><path d="m293.1 243.94a16 16 0 0 1 10.28-20.16l90.34-29.35a16 16 0 1 1 9.88 30.44l-90.34 29.35a16 16 0 0 1 -20.16-10.28z"/><g opacity=".2"><path d="m403.41 66.59a238.94 238.94 0 0 1 50.59 147.41c0 118.22-85.48 216.48-198 236.33v5.67a40 40 0 0 1 -28.51 38.32c143.13 17 268.51-94.7 268.51-238.32a239.59 239.59 0 0 0 -92.59-189.41z"/></g></g></svg>